<svg xmlns="http://www.w3.org/2000/svg" width="49" height="49" viewBox="0 0 49 49"><g><g><g><path fill="#dd4c5f" d="M46.428 26.28h-7.029c-.555 0-1.003-.45-1.003-1.006V11.217c0-.556.448-1.006 1.003-1.006h7.029zm-20.263-1.016a2.918 2.918 0 0 0-.603-3.01 3.008 3.008 0 0 0 0-4.015c.22-.241.4-.516.531-.813a7.498 7.498 0 0 0 6.284 2.82 1.005 1.005 0 0 0 0-2.007c-5.82 0-6.031-5.411-6.031-6.023V3.182c0-.555.448-1.003 1.004-1.003s1.005.448 1.005 1.003V5.19a5.021 5.021 0 0 0 4.594 5.018l3.447 3.423v11.634zm-9.863-.998c0-.553.45-.999 1.007-.999h6.032c.555 0 1.005.446 1.005.999 0 .553-.45.998-1.005.998H17.31a1.002 1.002 0 0 1-1.007-.998zM47.433 8.204H39.4a3.012 3.012 0 0 0-3.012 2.63l-2.3-2.34a1.01 1.01 0 0 0-.713-.29 3.013 3.013 0 0 1-3.013-3.012v-2.01a3.012 3.012 0 1 0-6.025 0V9.39a2.992 2.992 0 0 0-1.003-.181h-6.025a3.008 3.008 0 0 0-2.738 1.79 3.01 3.01 0 0 0 .508 3.231 3.009 3.009 0 0 0 0 4.017 3.009 3.009 0 0 0 0 4.016 3.01 3.01 0 0 0-.508 3.23 3.008 3.008 0 0 0 2.738 1.791H37.17c.569.635 1.378 1 2.23 1.004h8.033a1.005 1.005 0 0 0 1.004-1.004V9.208a1.005 1.005 0 0 0-1.004-1.004z"/></g><g><path fill="#a4aacf" d="M47.428 30.296c-.555 0-1.005.45-1.005 1.004v3.013a3.012 3.012 0 0 1-3.013 3.012h-9.038c-.553 0-1.003.45-1.003 1.006v6.618l-7.321-7.321v-.002c-.188-.19-.444-.3-.714-.301H5.252a3.012 3.012 0 0 1-3.013-3.013V5.192a3.012 3.012 0 0 1 3.013-3.013h16.066a1.004 1.004 0 0 0 0-2.009H5.252A5.022 5.022 0 0 0 .23 5.192v29.12a5.02 5.02 0 0 0 5.022 5.022h19.672l8.746 8.746a1.006 1.006 0 0 0 1.708-.712v-8.034a5.02 5.02 0 0 0 5.021-5.022V31.3a1.005 1.005 0 0 0-1.003-1.004z"/></g></g></g></svg>