<svg xmlns="http://www.w3.org/2000/svg" width="56" height="56" viewBox="0 0 56 56"><g><g><g><g><g><path fill="#0077b9" d="M44.632 30.93h-2.31a.915.915 0 0 0-.885.686 13.537 13.537 0 0 1-1.461 3.529.914.914 0 0 0 .141 1.111l1.633 1.633-3.88 3.881-1.633-1.633a.92.92 0 0 0-1.112-.141 13.618 13.618 0 0 1-3.529 1.461.913.913 0 0 0-.686.885v2.31h-5.489v-2.31a.913.913 0 0 0-.686-.885c-1.24-.32-2.426-.81-3.528-1.461a.917.917 0 0 0-1.112.141l-1.633 1.633-3.88-3.88 1.632-1.634a.914.914 0 0 0 .142-1.111 13.539 13.539 0 0 1-1.461-3.529.915.915 0 0 0-.885-.686H11.7v-5.489h2.31c.416 0 .78-.28.885-.686.317-1.24.81-2.426 1.461-3.528a.914.914 0 0 0-.142-1.112l-1.633-1.633 3.881-3.88 1.633 1.632a.917.917 0 0 0 1.112.142 13.617 13.617 0 0 1 3.528-1.461.913.913 0 0 0 .686-.886v-2.31h5.49v2.31c0 .417.28.783.685.886 1.24.32 2.427.81 3.53 1.46a.92.92 0 0 0 1.11-.14L37.87 14.6l3.881 3.881-1.633 1.633a.914.914 0 0 0-.141 1.112 13.539 13.539 0 0 1 1.461 3.528.915.915 0 0 0 .885.686h2.31zm.915-7.318h-2.532a15.455 15.455 0 0 0-1.114-2.692l1.791-1.788-.002-.003a.912.912 0 0 0 0-1.292l-5.176-5.175a.91.91 0 0 0-1.292 0l-1.79 1.788a15.448 15.448 0 0 0-2.692-1.114v-2.531a.916.916 0 0 0-.915-.915h-7.318a.916.916 0 0 0-.915.915v2.531c-.931.286-1.832.66-2.692 1.114l-1.79-1.788a.912.912 0 0 0-1.293 0l-5.175 5.175a.91.91 0 0 0 0 1.292l1.79 1.789-.002.002c-.455.86-.828 1.761-1.114 2.692h-2.531a.916.916 0 0 0-.915.915v7.318a.916.916 0 0 0 .915.915h2.531c.286.93.66 1.832 1.114 2.692l-1.788 1.79a.912.912 0 0 0 0 1.292l5.175 5.176a.91.91 0 0 0 1.292 0L20.9 41.92c.86.455 1.761.828 2.692 1.114v2.532a.916.916 0 0 0 .915.915h7.318a.916.916 0 0 0 .915-.915v-2.532c.93-.286 1.832-.659 2.691-1.114l1.791 1.789a.912.912 0 0 0 1.292 0l5.176-5.176a.91.91 0 0 0 0-1.292l-1.791-1.788.002-.002c.455-.86.828-1.761 1.114-2.692h2.532a.916.916 0 0 0 .915-.915v-7.318a.916.916 0 0 0-.915-.915z"/></g><g><path fill="#0077b9" d="M28.168 37.335a9.139 9.139 0 0 1-6.469-2.68 9.137 9.137 0 0 1-2.68-6.468c0-2.426.963-4.752 2.68-6.467a9.138 9.138 0 0 1 6.469-2.68c2.426 0 4.752.962 6.468 2.68a9.137 9.137 0 0 1-.003 12.933 9.159 9.159 0 0 1-6.465 2.682zm0-20.125a10.979 10.979 0 0 0 0 21.955 10.979 10.979 0 0 0 10.977-10.977 10.995 10.995 0 0 0-3.218-7.76 10.994 10.994 0 0 0-7.76-3.218z"/></g><g><path fill="#0077b9" d="M26.33 24.311l6.453 3.877-6.453 3.877zM24.964 21.9a.917.917 0 0 0-.464.796v10.977a.917.917 0 0 0 1.386.784l9.148-5.488a.917.917 0 0 0 0-1.57l-9.148-5.488a.916.916 0 0 0-.922-.011z"/></g><g><path fill="#d6dfef" d="M50.26 5.099a1.833 1.833 0 0 1 .395-1.994 1.833 1.833 0 0 1 3.124 1.294 1.829 1.829 0 1 1-3.52.7zm1.69 1.13zm0-5.489a3.657 3.657 0 0 0-2.587 6.246A3.658 3.658 0 1 0 51.95.74z"/></g><g><path fill="#d6dfef" d="M2.69 5.099a1.833 1.833 0 0 1 .395-1.994 1.833 1.833 0 0 1 3.124 1.294 1.829 1.829 0 1 1-3.52.7zm1.69 1.13h-.001zm0-5.489a3.657 3.657 0 0 0-2.587 6.246A3.658 3.658 0 1 0 4.38.74z"/></g><g><path fill="#d6dfef" d="M50.26 52.669a1.833 1.833 0 0 1 .395-1.994 1.833 1.833 0 0 1 3.124 1.294 1.829 1.829 0 1 1-3.52.7zm1.69-4.359a3.657 3.657 0 0 0-2.587 6.246 3.658 3.658 0 1 0 2.587-6.246z"/></g><g><path fill="#d6dfef" d="M2.69 52.669a1.833 1.833 0 0 1 .395-1.994 1.833 1.833 0 0 1 3.124 1.294 1.829 1.829 0 1 1-3.52.7zm1.69 1.13h-.001zm0-5.489a3.657 3.657 0 0 0-2.587 6.246A3.658 3.658 0 1 0 4.38 48.31z"/></g><g><path fill="#d6dfef" d="M48.29 28.19h1.83v1.83h-1.83z"/></g><g><path fill="#d6dfef" d="M51.95 28.19h1.83v1.83h-1.83z"/></g><g><path fill="#d6dfef" d="M51.95 24.53h1.83v1.83h-1.83z"/></g><g><path fill="#d6dfef" d="M51.95 20.87h1.83v1.83h-1.83z"/></g><g><path fill="#d6dfef" d="M51.95 17.21h1.83v1.83h-1.83z"/></g><g><path fill="#d6dfef" d="M51.95 13.55h1.83v1.83h-1.83z"/></g><g><path fill="#d6dfef" d="M51.95 9.89h1.83v1.83h-1.83z"/></g><g><path fill="#d6dfef" d="M9.87 2.57h1.83V4.4H9.87z"/></g><g><path fill="#d6dfef" d="M13.53 2.57h1.83V4.4h-1.83z"/></g><g><path fill="#d6dfef" d="M17.19 2.57h1.83V4.4h-1.83z"/></g><g><path fill="#d6dfef" d="M20.85 2.57h1.83V4.4h-1.83z"/></g><g><path fill="#d6dfef" d="M24.5 2.57h1.83V4.4H24.5z"/></g><g><path fill="#d6dfef" d="M28.16 2.57h1.83V4.4h-1.83z"/></g><g><path fill="#d6dfef" d="M28.16 6.23h1.83v1.83h-1.83z"/></g><g><path fill="#d6dfef" d="M2.55 44.65h1.83v1.83H2.55z"/></g><g><path fill="#d6dfef" d="M2.55 40.99h1.83v1.83H2.55z"/></g><g><path fill="#d6dfef" d="M2.55 37.34h1.83v1.83H2.55z"/></g><g><path fill="#d6dfef" d="M2.55 33.68h1.83v1.83H2.55z"/></g><g><path fill="#d6dfef" d="M2.55 30.02h1.83v1.83H2.55z"/></g><g><path fill="#d6dfef" d="M2.55 26.36h1.83v1.83H2.55z"/></g><g><path fill="#d6dfef" d="M6.21 26.36h1.83v1.83H6.21z"/></g><g><path fill="#d6dfef" d="M26.33 48.31h1.83v1.83h-1.83z"/></g><g><path fill="#d6dfef" d="M26.33 51.97h1.83v1.83h-1.83z"/></g><g><path fill="#d6dfef" d="M29.99 51.97h1.83v1.83h-1.83z"/></g><g><path fill="#d6dfef" d="M33.65 51.97h1.83v1.83h-1.83z"/></g><g><path fill="#d6dfef" d="M37.31 51.97h1.83v1.83h-1.83z"/></g><g><path fill="#d6dfef" d="M40.97 51.97h1.83v1.83h-1.83z"/></g><g><path fill="#d6dfef" d="M44.63 51.97h1.83v1.83h-1.83z"/></g></g></g></g></g></svg>