<svg xmlns="http://www.w3.org/2000/svg" width="45" height="40" viewBox="0 0 45 40"><g><g><g><path fill="#00a914" d="M8.814 24.542a2.668 2.668 0 0 0 2.667-2.67c0-.324-.066-.631-.173-.917l5.173-4.224c.407.255.885.407 1.4.407.66 0 1.253-.248 1.72-.643l4.734 2.784a2.666 2.666 0 1 0 5.28.527c0-.418-.104-.809-.275-1.159l5.497-5.448c.357.177.755.286 1.18.286a2.667 2.667 0 1 0-2.669-2.666c0 .461.127.888.336 1.268l-5.448 5.399a2.63 2.63 0 0 0-1.29-.346c-.713 0-1.358.284-1.836.741l-4.655-2.741c.057-.214.095-.437.095-.668a2.667 2.667 0 1 0-5.117 1.052l-5.098 4.162a2.653 2.653 0 0 0-1.519-.477 2.668 2.668 0 0 0-2.666 2.668 2.663 2.663 0 0 0 2.664 2.665z"/></g><g><path fill="#a4aacf" d="M41.348 28.213c0 .062-.05.111-.11.111l-37.635-.002a.111.111 0 0 1-.111-.11V4.843h37.857zM23.801 2.081v-.65a1.382 1.382 0 0 0-2.762 0v.65H1.73a1.379 1.379 0 1 0-.082 2.755V28.21c0 1.076.875 1.952 1.952 1.952h16.595l-7.773 7.772a.92.92 0 1 0 1.303 1.303l7.773-7.774v4.735a.922.922 0 0 0 1.843 0v-4.737l7.774 7.774a.918.918 0 0 0 1.303 0 .92.92 0 0 0 0-1.303l-7.775-7.77H41.24a1.954 1.954 0 0 0 1.953-1.952V4.836a1.377 1.377 0 0 0-.083-2.755z"/></g></g></g></svg>